<?xml version="1.0" encoding="utf-8"?>
<!-- Generator: Adobe Illustrator 24.1.0, SVG Export Plug-In . SVG Version: 6.00 Build 0)  -->
<svg version="1.1" id="Layer_1" xmlns="http://www.w3.org/2000/svg" xmlns:xlink="http://www.w3.org/1999/xlink" x="0px" y="0px"
	 viewBox="0 0 191.1 36.3" style="enable-background:new 0 0 191.1 36.3;" xml:space="preserve">
<style type="text/css">
	.st0{fill:#1752CA;}
	.st1{fill:#FF3535;}
	.st2{fill:none;stroke:#1852CC;stroke-width:6;stroke-miterlimit:10;}
	.st3{fill:#1852CC;}
	.st4{fill-rule:evenodd;clip-rule:evenodd;fill:#FF3535;}
</style>
<g>
	<g>
		<polygon class="st0" points="29.3,11.3 36.1,11.3 36.1,32 42,32 42,11.3 49,11.3 49,6.4 29.3,6.4 		"/>
		<path class="st0" d="M66.9,14.4h-5.5v10.5c0,0.4,0,0.9-0.2,1.2C60.8,27,59.9,28,58.4,28c-1.9,0-2.7-1.6-2.7-4.1v-9.5h-5.5v10.4
			c0,5.5,2.6,7.7,6.2,7.7c3.2,0,4.8-1.8,5.5-2.9H62l0.3,2.5H67c-0.1-1.5-0.1-3.4-0.1-5.7V14.4z"/>
		<path class="st0" d="M98.1,14c-5.7,0-9.4,3.6-9.4,9.4c0,5.7,4,9.1,9.1,9.1c4.7,0,9.3-3,9.3-9.4C107.1,17.7,103.5,14,98.1,14z
			 M97.9,28.5c-2.3,0-3.6-2.3-3.6-5.3c0-2.6,1-5.3,3.6-5.3c2.5,0,3.5,2.7,3.5,5.3C101.4,26.4,100.1,28.5,97.9,28.5z"/>
		<path class="st0" d="M87,26.8V6.4h-5.5V16h-0.1c-0.8-1.2-2.5-2-4.7-2c-4.2,0-7.9,3.4-7.9,9.4c0,5.5,3.4,9.1,7.6,9.1
			c2.3,0,4.4-1,5.5-3H82l0.2,2.6h4.9C87.1,30.9,87,28.8,87,26.8z M81.2,24.2c0,0.5,0,0.9-0.1,1.3c-0.3,1.6-1.6,2.6-3.2,2.6
			c-2.3,0-3.8-1.9-3.8-4.9c0-2.8,1.3-5,3.8-5c1.7,0,2.9,1.2,3.2,2.7c0,0.3,0.1,0.7,0.1,1V24.2z"/>
	</g>
	<g>
		<polygon class="st1" points="109.1,32.1 114.9,32.1 114.9,21.8 124.1,21.8 124.1,17.1 114.9,17.1 114.9,11.2 124.8,11.2 
			124.8,6.4 109.1,6.4 		"/>
		<path class="st1" d="M135,14c-5.7,0-9.4,3.6-9.4,9.4c0,5.7,4,9.1,9.1,9.1c4.7,0,9.3-3,9.3-9.4C144.1,17.7,140.5,14,135,14z
			 M135.3,28.5c-2.3,0-3.6-2.3-3.6-5.3c0-2.6,1-5.3,3.6-5.3c2.5,0,3.5,2.7,3.5,5.3C138.8,26.4,137.4,28.5,135.3,28.5z"/>
		<path class="st1" d="M151,17.7h-0.1l-0.2-3.2H146c0.1,1.5,0.1,3.2,0.1,5.8v11.8h5.5v-9c0-0.4,0-0.9,0.1-1.2
			c0.4-1.7,1.7-2.8,3.8-2.8c0.6,0,1.1,0.1,1.5,0.1v-5.2c-0.4-0.1-0.7-0.1-1.2-0.1C154.1,14,151.9,15.1,151,17.7z"/>
		<path class="st1" d="M187.9,22.8c0-4.4-2.2-8.8-7.9-8.8c-6.1,0-8.9,4.9-8.9,9.4c0,5.5,3.4,9,9.4,9c2.4,0,4.6-0.4,6.4-1.1l-0.7-3.7
			c-1.5,0.5-3,0.7-4.9,0.7c-2.6,0-4.8-1.1-5-3.4h11.4C187.8,24.6,187.9,23.8,187.9,22.8z M176.3,21.2c0.2-1.5,1.1-3.6,3.4-3.6
			c2.5,0,3.1,2.2,3.1,3.6H176.3z"/>
		<path class="st1" d="M166.1,9.4l-5.4,1.2v3.8h-2.3v4h2.3v7.2c0,2.5,0.5,4.2,1.5,5.2c0.9,0.9,2.4,1.5,4.1,1.5
			c1.5,0,2.8-0.2,3.6-0.5l0-4.1c-0.4,0.1-0.9,0.1-1.6,0.1c-1.7,0-2.2-1-2.2-3.1v-6.4h3.9v-4h-3.9V9.4z"/>
	</g>
	<g>
		<path class="st3" d="M6.3,20.4c-0.5,0-0.9-0.4-0.9-0.9c0-5.2,4.3-9.5,9.5-9.5c3.1,0,6,1.5,7.8,4.1c0.3,0.4,0.2,1-0.2,1.3
			c-0.4,0.3-1,0.2-1.3-0.2c-1.4-2.1-3.8-3.3-6.3-3.3c-4.2,0-7.7,3.4-7.7,7.7C7.2,20,6.8,20.4,6.3,20.4z"/>
	</g>
	<g>
		<path class="st3" d="M14.9,28.8c-3.3,0-6.4-1.7-8.1-4.6c-0.3-0.4-0.1-1,0.3-1.2c0.4-0.3,1-0.1,1.2,0.3c1.4,2.3,3.9,3.7,6.6,3.7
			c2.4,0,4.6-1.1,6.1-3c0.3-0.4,0.9-0.5,1.3-0.2c0.4,0.3,0.5,0.9,0.2,1.3C20.6,27.5,17.9,28.8,14.9,28.8z"/>
	</g>
	<g>
		<path class="st3" d="M14.9,32c-4.9,0-9.3-2.7-11.5-7.1c-0.2-0.4,0-1,0.4-1.2c0.4-0.2,1,0,1.2,0.4c1.9,3.8,5.7,6.1,9.9,6.1
			c3.5,0,6.8-1.7,8.9-4.5c0.3-0.4,0.9-0.5,1.3-0.2c0.4,0.3,0.5,0.9,0.2,1.3C22.8,30.1,18.9,32,14.9,32z"/>
	</g>
	<g>
		<path class="st3" d="M3,21.2c-0.5,0-0.9-0.4-0.9-0.8c0-0.4,0-0.8,0-1.1C2,12.2,7.8,6.4,14.9,6.4c4.5,0,8.6,2.3,10.9,6.1l0,0.1
			c0.3,0.4,0.1,1-0.3,1.2c-0.4,0.3-1,0.1-1.2-0.3l0,0c-2-3.3-5.5-5.2-9.4-5.2c-6.1,0-11,4.9-11,11c0,0.3,0,0.7,0,1
			C3.9,20.7,3.6,21.1,3,21.2C3,21.2,3,21.2,3,21.2z"/>
	</g>
	<g>
		<circle class="st4" cx="14.9" cy="19.5" r="5.5"/>
	</g>
</g>
</svg>
