<?xml version="1.0" encoding="utf-8"?>
<!-- Generator: Adobe Illustrator 24.1.0, SVG Export Plug-In . SVG Version: 6.00 Build 0)  -->
<svg version="1.1" id="Layer_1" xmlns="http://www.w3.org/2000/svg" xmlns:xlink="http://www.w3.org/1999/xlink" x="0px" y="0px"
	 viewBox="0 0 512 512" style="enable-background:new 0 0 512 512;" xml:space="preserve">
<style type="text/css">
	.st0{fill:#FFDE46;}
	.st1{fill:#001737;}
	.st2{fill:#FF3F5C;}
	.st3{fill:#D20763;}
</style>
<g>
	<g>
		<path class="st0" d="M256,512C114.8,512,0,397.2,0,256S114.8,0,256,0s256,114.8,256,256S397.2,512,256,512z"/>
	</g>
	<g>
		<path class="st1" d="M130.9,223c-3.1,0-6.2-0.9-8.9-2.9c-6.7-4.9-8.1-14.3-3.2-21l28.3-38.5c5.7-7.8,14.5-12.2,24.2-12.3h0
			c9.6,0,18.4,4.4,24.1,12.2l28.5,38.5c4.9,6.7,3.5,16.1-3.1,21c-6.7,4.9-16.1,3.5-21-3.1l-28.5-38.5c0,0,0,0,0,0c0,0,0,0,0,0
			L143,216.9C140,220.9,135.5,223,130.9,223L130.9,223z"/>
	</g>
	<g>
		<path class="st1" d="M300.1,223c-3.1,0-6.2-0.9-8.9-2.9c-6.7-4.9-8.1-14.3-3.2-21l28.3-38.5c5.7-7.8,14.5-12.2,24.2-12.3h0
			c9.6,0,18.4,4.4,24.1,12.2l28.5,38.5c4.9,6.7,3.5,16.1-3.1,21c-6.7,4.9-16.1,3.5-21-3.1l-28.5-38.5c0,0,0,0,0,0c0,0,0,0,0,0
			l-28.3,38.5C309.3,220.9,304.7,223,300.1,223L300.1,223z"/>
	</g>
	<g>
		<path class="st1" d="M256,393c-29,0-55.7,32.7-77,16.3c-30-23.1-49.4-59.5-49.4-100.2V307c0-4.1,3.4-7.5,7.5-7.5h237.9
			c4.1,0,7.5,3.4,7.5,7.5v2.1c0,40.8-19.4,77.1-49.4,100.2C311.7,425.7,285,393,256,393z"/>
	</g>
	<path class="st1" d="M374.9,299.5H256V393c29,0,55.7,32.7,77,16.3c30-23.1,49.4-59.5,49.4-100.2V307
		C382.4,302.9,379.1,299.5,374.9,299.5z"/>
	<path class="st2" d="M178.9,409.2c21.3,16.5,48.1,26.3,77.1,26.3s55.7-9.8,77.1-26.3c-5.8-28.5-38.1-50.2-77.1-50.2
		C217.1,359,184.8,380.8,178.9,409.2z"/>
	<path class="st3" d="M256,435.5c29,0,55.7-9.8,77.1-26.3c-5.8-28.5-38.1-50.2-77.1-50.2V435.5z"/>
</g>
</svg>
