<?xml version="1.0" encoding="UTF-8"?>
<svg width="53px" height="53px" viewBox="0 0 53 53" version="1.1" xmlns="http://www.w3.org/2000/svg" xmlns:xlink="http://www.w3.org/1999/xlink">
    <!-- Generator: sketchtool 61.2 (101010) - https://sketch.com -->
    <title>095C158C-7E6E-4BFC-A26B-7023D83CCF82</title>
    <desc>Created with sketchtool.</desc>
    <g id="Page-1" stroke="none" stroke-width="1" fill="none" fill-rule="evenodd">
        <g id="MVC_PARCEIRO_MAGALU_Antes_cadastro" transform="translate(-694.000000, -189.000000)" fill="#0A4C89" fill-rule="nonzero">
            <g id="warning" transform="translate(694.000000, 189.000000)">
                <path d="M26.5,0 C11.8522285,0 0,11.8532637 0,26.5 C0,41.1477715 11.8532637,53 26.5,53 C41.1477715,53 53,41.1467363 53,26.5 C53,11.8522285 41.1467363,0 26.5,0 Z M26.5,48.859375 C14.140959,48.859375 4.140625,38.8582129 4.140625,26.5 C4.140625,14.140959 14.1417871,4.140625 26.5,4.140625 C38.859041,4.140625 48.859375,14.1417871 48.859375,26.5 C48.859375,38.859041 38.8582129,48.859375 26.5,48.859375 Z" id="Shape"></path>
                <path d="M27,14 C25.8954,14 25,14.9018028 25,16.0143015 L25,28.9856985 C25,30.0981972 25.8954,31 27,31 C28.1046,31 29,30.0981972 29,28.9856985 L29,16.0143015 C29,14.9018028 28.1046,14 27,14 Z" id="Path"></path>
                <circle id="Oval" cx="27" cy="36" r="3"></circle>
            </g>
        </g>
    </g>
</svg>